<mxfile host="Electron" modified="2023-11-24T20:46:06.145Z" agent="Mozilla/5.0 (Windows NT 10.0; Win64; x64) AppleWebKit/537.36 (KHTML, like Gecko) draw.io/22.1.2 Chrome/114.0.5735.289 Electron/25.9.4 Safari/537.36" etag="JRud1o5XSgeNs8pWl3_q" version="22.1.2" type="device">
  <diagram name="Page-1" id="du--K4UeE7Una3I8GDkH">
    <mxGraphModel dx="2049" dy="1329" grid="1" gridSize="10" guides="1" tooltips="1" connect="1" arrows="1" fold="1" page="1" pageScale="1" pageWidth="1100" pageHeight="850" math="0" shadow="0">
      <root>
        <mxCell id="0" />
        <mxCell id="1" parent="0" />
        <mxCell id="QxnVtI1UuPjFrHHvV7rU-3" value="Views" style="swimlane;whiteSpace=wrap;html=1;startSize=23;" parent="1" vertex="1">
          <mxGeometry x="70" y="184" width="330" height="406" as="geometry" />
        </mxCell>
        <mxCell id="jwHWnWC_ZpKXBPb_BFdE-14" value="GameRoomView" style="rounded=0;whiteSpace=wrap;html=1;" vertex="1" parent="QxnVtI1UuPjFrHHvV7rU-3">
          <mxGeometry x="34.5" y="46" width="260" height="60" as="geometry" />
        </mxCell>
        <mxCell id="jwHWnWC_ZpKXBPb_BFdE-15" value="IdleRoomView" style="rounded=0;whiteSpace=wrap;html=1;" vertex="1" parent="QxnVtI1UuPjFrHHvV7rU-3">
          <mxGeometry x="35.5" y="116" width="260" height="60" as="geometry" />
        </mxCell>
        <mxCell id="jwHWnWC_ZpKXBPb_BFdE-16" value="LoginView" style="rounded=0;whiteSpace=wrap;html=1;" vertex="1" parent="QxnVtI1UuPjFrHHvV7rU-3">
          <mxGeometry x="34.5" y="186" width="260" height="60" as="geometry" />
        </mxCell>
        <mxCell id="jwHWnWC_ZpKXBPb_BFdE-17" value="MainView" style="rounded=0;whiteSpace=wrap;html=1;" vertex="1" parent="QxnVtI1UuPjFrHHvV7rU-3">
          <mxGeometry x="34.5" y="256" width="260" height="60" as="geometry" />
        </mxCell>
        <mxCell id="jwHWnWC_ZpKXBPb_BFdE-18" value="ServerIpView" style="rounded=0;whiteSpace=wrap;html=1;" vertex="1" parent="QxnVtI1UuPjFrHHvV7rU-3">
          <mxGeometry x="34.5" y="326" width="260" height="60" as="geometry" />
        </mxCell>
        <mxCell id="QxnVtI1UuPjFrHHvV7rU-4" value="ViewModels" style="swimlane;whiteSpace=wrap;html=1;startSize=23;" parent="1" vertex="1">
          <mxGeometry x="630" y="184" width="330" height="406" as="geometry" />
        </mxCell>
        <mxCell id="QxnVtI1UuPjFrHHvV7rU-18" value="GameRoomViewModel" style="rounded=0;whiteSpace=wrap;html=1;" parent="QxnVtI1UuPjFrHHvV7rU-4" vertex="1">
          <mxGeometry x="35" y="46" width="260" height="60" as="geometry" />
        </mxCell>
        <mxCell id="QxnVtI1UuPjFrHHvV7rU-19" value="IdleRoomViewModel" style="rounded=0;whiteSpace=wrap;html=1;" parent="QxnVtI1UuPjFrHHvV7rU-4" vertex="1">
          <mxGeometry x="35" y="116" width="260" height="60" as="geometry" />
        </mxCell>
        <mxCell id="QxnVtI1UuPjFrHHvV7rU-20" value="LoginViewModel" style="rounded=0;whiteSpace=wrap;html=1;" parent="QxnVtI1UuPjFrHHvV7rU-4" vertex="1">
          <mxGeometry x="35" y="186" width="260" height="60" as="geometry" />
        </mxCell>
        <mxCell id="QxnVtI1UuPjFrHHvV7rU-21" value="MainViewModel" style="rounded=0;whiteSpace=wrap;html=1;" parent="QxnVtI1UuPjFrHHvV7rU-4" vertex="1">
          <mxGeometry x="35" y="256" width="260" height="60" as="geometry" />
        </mxCell>
        <mxCell id="QxnVtI1UuPjFrHHvV7rU-22" value="ServerIpViewModel" style="rounded=0;whiteSpace=wrap;html=1;" parent="QxnVtI1UuPjFrHHvV7rU-4" vertex="1">
          <mxGeometry x="35" y="326" width="260" height="60" as="geometry" />
        </mxCell>
        <mxCell id="QxnVtI1UuPjFrHHvV7rU-5" value="Models" style="swimlane;whiteSpace=wrap;html=1;startSize=23;" parent="1" vertex="1">
          <mxGeometry x="1190" y="184" width="330" height="406" as="geometry" />
        </mxCell>
        <mxCell id="QxnVtI1UuPjFrHHvV7rU-8" value="GameClient" style="rounded=0;whiteSpace=wrap;html=1;" parent="QxnVtI1UuPjFrHHvV7rU-5" vertex="1">
          <mxGeometry x="35" y="211" width="260" height="60" as="geometry" />
        </mxCell>
        <mxCell id="QxnVtI1UuPjFrHHvV7rU-17" value="Used as observable collection parameter&lt;br&gt;(for displaying in list UI element)" style="edgeStyle=orthogonalEdgeStyle;rounded=0;orthogonalLoop=1;jettySize=auto;html=1;entryX=0.5;entryY=0;entryDx=0;entryDy=0;" parent="QxnVtI1UuPjFrHHvV7rU-5" source="QxnVtI1UuPjFrHHvV7rU-16" target="QxnVtI1UuPjFrHHvV7rU-8" edge="1">
          <mxGeometry relative="1" as="geometry" />
        </mxCell>
        <mxCell id="QxnVtI1UuPjFrHHvV7rU-16" value="GameRoomListItem" style="rounded=0;whiteSpace=wrap;html=1;" parent="QxnVtI1UuPjFrHHvV7rU-5" vertex="1">
          <mxGeometry x="35" y="56" width="260" height="60" as="geometry" />
        </mxCell>
        <mxCell id="QxnVtI1UuPjFrHHvV7rU-6" value="Utils" style="swimlane;whiteSpace=wrap;html=1;startSize=23;" parent="1" vertex="1">
          <mxGeometry x="1750" y="184" width="330" height="406" as="geometry" />
        </mxCell>
        <mxCell id="QxnVtI1UuPjFrHHvV7rU-14" style="edgeStyle=orthogonalEdgeStyle;rounded=0;orthogonalLoop=1;jettySize=auto;html=1;" parent="QxnVtI1UuPjFrHHvV7rU-6" source="QxnVtI1UuPjFrHHvV7rU-7" target="QxnVtI1UuPjFrHHvV7rU-11" edge="1">
          <mxGeometry relative="1" as="geometry" />
        </mxCell>
        <mxCell id="QxnVtI1UuPjFrHHvV7rU-15" style="edgeStyle=orthogonalEdgeStyle;rounded=0;orthogonalLoop=1;jettySize=auto;html=1;" parent="QxnVtI1UuPjFrHHvV7rU-6" source="QxnVtI1UuPjFrHHvV7rU-7" target="QxnVtI1UuPjFrHHvV7rU-10" edge="1">
          <mxGeometry relative="1" as="geometry" />
        </mxCell>
        <mxCell id="QxnVtI1UuPjFrHHvV7rU-7" value="ClientConnection" style="rounded=0;whiteSpace=wrap;html=1;" parent="QxnVtI1UuPjFrHHvV7rU-6" vertex="1">
          <mxGeometry x="35" y="211" width="260" height="60" as="geometry" />
        </mxCell>
        <mxCell id="QxnVtI1UuPjFrHHvV7rU-10" value="ProtocolSerializer" style="rounded=0;whiteSpace=wrap;html=1;" parent="QxnVtI1UuPjFrHHvV7rU-6" vertex="1">
          <mxGeometry x="35" y="96" width="260" height="60" as="geometry" />
        </mxCell>
        <mxCell id="QxnVtI1UuPjFrHHvV7rU-11" value="Protocol parser" style="rounded=0;whiteSpace=wrap;html=1;" parent="QxnVtI1UuPjFrHHvV7rU-6" vertex="1">
          <mxGeometry x="35" y="326" width="260" height="60" as="geometry" />
        </mxCell>
        <mxCell id="jwHWnWC_ZpKXBPb_BFdE-10" value="Network write operation" style="shape=step;perimeter=stepPerimeter;fixedSize=1;points=[];whiteSpace=wrap;html=1;" vertex="1" parent="1">
          <mxGeometry x="1500" y="380" width="270" height="40" as="geometry" />
        </mxCell>
        <mxCell id="jwHWnWC_ZpKXBPb_BFdE-11" value="Network read operation" style="shape=step;perimeter=stepPerimeter;fixedSize=1;points=[];whiteSpace=wrap;html=1;flipH=1;" vertex="1" parent="1">
          <mxGeometry x="1500" y="430" width="270" height="40" as="geometry" />
        </mxCell>
        <mxCell id="jwHWnWC_ZpKXBPb_BFdE-12" value="Method calls &lt;br&gt;(sending data to server)" style="shape=step;perimeter=stepPerimeter;fixedSize=1;points=[];whiteSpace=wrap;html=1;" vertex="1" parent="1">
          <mxGeometry x="940" y="380" width="270" height="40" as="geometry" />
        </mxCell>
        <mxCell id="jwHWnWC_ZpKXBPb_BFdE-13" value="GameClient notifies VMs via callback lambda&lt;br&gt;(receiving data from server)" style="shape=step;perimeter=stepPerimeter;fixedSize=1;points=[];whiteSpace=wrap;html=1;flipH=1;" vertex="1" parent="1">
          <mxGeometry x="930" y="430" width="270" height="40" as="geometry" />
        </mxCell>
        <mxCell id="jwHWnWC_ZpKXBPb_BFdE-19" value="Views bind to ViewModel&lt;br&gt;properties" style="shape=step;perimeter=stepPerimeter;fixedSize=1;points=[];whiteSpace=wrap;html=1;" vertex="1" parent="1">
          <mxGeometry x="380" y="393" width="270" height="65" as="geometry" />
        </mxCell>
      </root>
    </mxGraphModel>
  </diagram>
</mxfile>
